<svg xmlns="http://www.w3.org/2000/svg" xmlns:xlink="http://www.w3.org/1999/xlink" viewBox="0 0 64 64"><defs><linearGradient id="b" x1="34" x2="34" y1="61" y2="16" gradientUnits="userSpaceOnUse"><stop offset="0" stop-color="#009e77"/><stop offset="1" stop-color="#00d291"/></linearGradient><linearGradient id="c" x1="20" x2="20" y1="61" y2="51" gradientUnits="userSpaceOnUse"><stop offset="0" stop-color="#002237"/><stop offset="1" stop-color="#003352"/></linearGradient><linearGradient id="d" x1="14.5" x2="14.5" y1="17" y2="9" gradientUnits="userSpaceOnUse"><stop offset="0" stop-color="#1db7a9"/><stop offset="1" stop-color="#1cebae"/></linearGradient><linearGradient id="e" x1="34" x2="34" y1="11" y2="18" gradientUnits="userSpaceOnUse"><stop offset="0" stop-color="#ffc033"/><stop offset="1" stop-color="#ef8e2e"/></linearGradient><linearGradient id="a" x1="30.5" x2="30.5" y1="61" y2="3.03" gradientUnits="userSpaceOnUse"><stop offset="0" stop-color="#000406"/><stop offset="1" stop-color="#001521"/></linearGradient><linearGradient id="f" x1="20" x2="20" y1="57" y2="55" xlink:href="#a"/></defs><g data-name="Layer 2"><path fill="url(#b)" d="M48,16H20a.9.9,0,0,0-1,1V60a.9.9,0,0,0,1,1H42.2a5,5,0,0,0,5-4.8L49,17A1,1,0,0,0,48,16Z"/><circle cx="20" cy="56" r="5" fill="url(#c)"/><path fill="#007a5b" d="M48.4,30H37a.9.9,0,0,0-1,1V48a.9.9,0,0,0,1,1H47.5Z"/><path fill="url(#d)" d="M18.3,11l-7-2A1,1,0,0,0,10,10v3a.9.9,0,0,0,.6.9l7,3A1,1,0,0,0,19,16V12A1.2,1.2,0,0,0,18.3,11Z"/><path fill="#007a5b" d="M46.7,11.6a24.4,24.4,0,0,0-3.6-6.5H43a5.1,5.1,0,0,0-5.4-1.8L19.8,7A1,1,0,0,0,19,8v4a.9.9,0,0,0,1,1H45.8A1.1,1.1,0,0,0,46.7,11.6Z"/><rect width="34" height="7" x="17" y="11" fill="url(#e)" rx="2"/></g><g data-name="Layer 3"><path fill="url(#a)" d="M49,11H46.4a24.6,24.6,0,0,0-3.3-5.9H43a5.1,5.1,0,0,0-5.4-1.8L19.8,7A1,1,0,0,0,19,8v3h-.6L11.3,9A1,1,0,0,0,10,10v3a.9.9,0,0,0,.6.9l6.5,2.8A2.1,2.1,0,0,0,19,18V51.1A5,5,0,0,0,15,56a5,5,0,0,0,5,5H42.2a5,5,0,0,0,5-4.8L49,18h0a2,2,0,0,0,2-2V13A2,2,0,0,0,49,11ZM21,8.8,37.9,5.2h.3a2.9,2.9,0,0,1,3.2,1.2c.1,0,.1,0,.1.1A24.6,24.6,0,0,1,44.3,11H21Zm-9,2.5,5,1.5v1.7l-5-2.2ZM17,56a3,3,0,1,1,3,3A2.9,2.9,0,0,1,17,56Zm28.6-9H38V32h8.3Zm.8-17H37a.9.9,0,0,0-1,1V48a.9.9,0,0,0,1,1h8.5l-.3,7.1a3.1,3.1,0,0,1-3,2.9H24a5.1,5.1,0,0,0,1-3,5,5,0,0,0-4-4.9V18H47ZM19,16V13H49v3Z"/><circle cx="20" cy="56" r="1" fill="url(#f)"/></g></svg>